<svg width="30" height="39" viewBox="0 0 30 39" fill="none" xmlns="http://www.w3.org/2000/svg">
<path d="M20.116 23.6655C20.116 23.6864 20.116 23.7096 20.1183 23.7305L20.116 23.7281V23.6655Z" fill="#277BC0"/>
<path d="M30 26.8967C30 30.2045 28.6607 33.2059 26.4926 35.374C24.3222 37.5397 21.3232 38.8814 18.0154 38.8814H6.76654L13.2243 22.3075H18.0131C18.1129 22.3075 18.2104 22.3075 18.3102 22.3052C18.3845 22.3028 18.4611 22.3005 18.533 22.2959C18.5585 22.2936 18.5841 22.2936 18.6073 22.2912C18.6584 22.2889 18.7048 22.2866 18.7535 22.2819C18.9044 22.2727 19.0483 22.2634 19.1946 22.2494C19.2317 22.2471 19.2642 22.2402 19.2967 22.2378C19.4662 22.2193 19.6356 22.1984 19.8004 22.1705C19.8399 22.1682 19.8817 22.1612 19.9188 22.1543C20.0047 22.1403 20.0906 22.1264 20.1741 22.1102C20.2577 22.0939 20.3413 22.0777 20.4248 22.0637C20.4295 22.0637 20.4295 22.0637 20.4295 22.0637C20.527 22.0452 20.6245 22.022 20.722 21.9987C20.9146 21.9546 21.105 21.9036 21.2953 21.8479C21.3905 21.8223 21.481 21.7945 21.5762 21.7643C21.748 21.7109 21.9244 21.6529 22.0962 21.5925C22.1565 21.5693 22.2122 21.5484 22.2749 21.5275C22.4002 21.4765 22.5256 21.4277 22.644 21.3743C22.6881 21.3581 22.7322 21.3418 22.774 21.3186C22.897 21.2722 23.0131 21.2165 23.1291 21.1584C23.2452 21.1074 23.3566 21.0493 23.4703 20.9913C23.598 20.924 23.728 20.8613 23.8487 20.7894C23.8533 20.7894 23.8533 20.7847 23.8603 20.7847C23.9416 20.7406 24.0251 20.6942 24.1017 20.6454C24.1133 20.6362 24.1319 20.6292 24.1435 20.6199C24.2271 20.5735 24.313 20.5247 24.3919 20.4667C24.3942 20.4667 24.3942 20.4644 24.4012 20.4644C24.4662 20.4249 24.5312 20.3808 24.5962 20.339C24.6519 20.3019 24.7053 20.2694 24.761 20.2253C24.8167 20.1858 24.8701 20.1533 24.9258 20.1092C24.9652 20.0907 25.0001 20.0628 25.0349 20.0303C25.137 19.9607 25.2368 19.8887 25.3366 19.8051C25.397 19.7634 25.4597 19.7193 25.5154 19.6728C25.6013 19.6032 25.6871 19.5335 25.7707 19.4616C25.8264 19.4152 25.8821 19.3664 25.9378 19.3153C26.0423 19.2295 26.1398 19.1366 26.2396 19.0414C26.2489 19.0368 26.2535 19.0298 26.2628 19.0229L26.2767 19.0113C26.3139 18.9741 26.3487 18.9416 26.3858 18.9068C26.423 18.8697 26.4601 18.8372 26.4973 18.7977C26.5576 18.7397 26.6226 18.6724 26.6783 18.6097C27.1356 19.0809 27.5511 19.5939 27.9202 20.1371C28.0154 20.274 28.1059 20.411 28.1918 20.5526C28.2498 20.6385 28.3032 20.7313 28.3589 20.8195C29.3988 22.6 30 24.6798 30 26.8967Z" fill="#FFE8F5" fill-opacity="0.439216"/>
<path d="M30 26.8967C30 30.2045 28.6607 33.2059 26.4926 35.374C24.3222 37.5397 21.3232 38.8814 18.0154 38.8814H6.76654L13.2243 22.3075H18.0131C18.1129 22.3075 18.2104 22.3075 18.3102 22.3052C18.3845 22.3028 18.4611 22.3005 18.533 22.2959C18.5585 22.2936 18.5841 22.2936 18.6073 22.2912C18.6584 22.2889 18.7048 22.2866 18.7535 22.2819C18.9044 22.2727 19.0483 22.2634 19.1946 22.2494C19.2317 22.2471 19.2642 22.2402 19.2967 22.2378C19.4662 22.2193 19.6356 22.1984 19.8004 22.1705C19.8399 22.1682 19.8817 22.1612 19.9188 22.1543C20.0047 22.1403 20.0906 22.1264 20.1741 22.1102C20.2577 22.0939 20.3413 22.0777 20.4248 22.0637C20.4295 22.0637 20.4295 22.0637 20.4295 22.0637C20.527 22.0452 20.6245 22.022 20.722 21.9987C20.9146 21.9546 21.105 21.9036 21.2953 21.8479C21.3905 21.8223 21.481 21.7945 21.5762 21.7643C21.748 21.7109 21.9244 21.6529 22.0962 21.5925C22.1565 21.5693 22.2122 21.5484 22.2749 21.5275C22.4002 21.4765 22.5256 21.4277 22.644 21.3743C22.6881 21.3581 22.7322 21.3418 22.774 21.3186C22.897 21.2722 23.0131 21.2165 23.1291 21.1584C23.2452 21.1074 23.3566 21.0493 23.4703 20.9913C23.598 20.924 23.728 20.8613 23.8487 20.7894C23.8533 20.7894 23.8533 20.7847 23.8603 20.7847C23.9416 20.7406 24.0251 20.6942 24.1017 20.6454C24.1133 20.6362 24.1319 20.6292 24.1435 20.6199C24.2271 20.5735 24.313 20.5247 24.3919 20.4667C24.3942 20.4667 24.3942 20.4644 24.4012 20.4644C24.4662 20.4249 24.5312 20.3808 24.5962 20.339C24.6519 20.3019 24.7053 20.2694 24.761 20.2253C24.8167 20.1858 24.8701 20.1533 24.9258 20.1092C24.9652 20.0907 25.0001 20.0628 25.0349 20.0303C25.137 19.9607 25.2368 19.8887 25.3366 19.8051C25.397 19.7634 25.4597 19.7193 25.5154 19.6728C25.6013 19.6032 25.6871 19.5335 25.7707 19.4616C25.8264 19.4152 25.8821 19.3664 25.9378 19.3153C26.0423 19.2295 26.1398 19.1366 26.2396 19.0414C26.2489 19.0368 26.2535 19.0298 26.2628 19.0229L26.2767 19.0113C26.3139 18.9741 26.3487 18.9416 26.3858 18.9068C26.423 18.8697 26.4601 18.8372 26.4973 18.7977C26.5576 18.7397 26.6226 18.6724 26.6783 18.6097C27.1356 19.0809 27.5511 19.5939 27.9202 20.1371C28.0154 20.274 28.1059 20.411 28.1918 20.5526C28.2498 20.6385 28.3032 20.7313 28.3589 20.8195C29.3988 22.6 30 24.6798 30 26.8967Z" fill="url(#paint0_linear_579_1310)"/>
<path d="M18.0129 22.3075C18.4098 22.3075 18.8067 22.2866 19.1967 22.2518C18.8091 22.2889 18.4098 22.3075 18.0129 22.3075Z" fill="#368FCC"/>
<path d="M26.6713 18.6074C27.1286 19.0786 27.5441 19.5916 27.9132 20.1348C27.8691 20.1812 27.8273 20.23 27.7832 20.2741C27.7275 20.3391 27.6648 20.4041 27.6021 20.4667C27.5278 20.5387 27.4559 20.6083 27.3816 20.678L27.3677 20.6896C27.3584 20.6989 27.3538 20.7035 27.3445 20.7058C27.2447 20.8033 27.1425 20.8915 27.0427 20.9844C26.987 21.0378 26.9313 21.0842 26.8756 21.1306C26.792 21.2026 26.7061 21.2722 26.6202 21.3419C26.5645 21.3883 26.5042 21.4324 26.4415 21.4742C26.3417 21.5577 26.2419 21.632 26.1397 21.6993C26.1072 21.7295 26.0701 21.7574 26.0306 21.7783C25.9749 21.8224 25.9215 21.8572 25.8658 21.8943C25.8124 21.9338 25.7567 21.9686 25.701 22.0081C25.636 22.0498 25.571 22.0939 25.506 22.1334C25.5037 22.1334 25.5037 22.1357 25.4967 22.1357C25.4178 22.1938 25.3319 22.2402 25.2484 22.2889C25.2368 22.2982 25.2182 22.3052 25.2066 22.3145C25.1277 22.3609 25.0464 22.412 24.9652 22.4537C24.9605 22.4537 24.9605 22.4584 24.9536 22.4584C24.8352 22.5303 24.7029 22.5953 24.5729 22.6603C24.4615 22.7184 24.35 22.7764 24.234 22.8275C24.1179 22.8855 23.9995 22.9412 23.8788 22.9876C23.8347 23.0109 23.7929 23.0271 23.7488 23.0433C23.6304 23.0967 23.5051 23.1455 23.3798 23.1966C23.3194 23.2151 23.2637 23.2383 23.201 23.2615C23.0292 23.3219 22.8575 23.3799 22.681 23.4333C22.3096 23.5494 21.9266 23.6492 21.5367 23.7328C21.5367 23.7328 21.5367 23.7328 21.5343 23.7328C21.3649 23.7606 21.1954 23.7978 21.026 23.821C20.9865 23.8303 20.9447 23.8349 20.9076 23.8372C20.7428 23.8651 20.5733 23.8837 20.4039 23.9045C20.3714 23.9069 20.3366 23.9138 20.3018 23.9161C19.9118 23.9533 19.5148 23.9719 19.1179 23.9719H14.3361L8.52832 38.8814H3.28226C2.40251 38.8814 1.57614 38.6168 0.889043 38.1665H0.886722C0.670845 38.0249 0.466574 37.867 0.278551 37.6883C0.136954 37.3099 0.044104 36.906 0.0139276 36.4836C0.00464252 36.3768 0 36.2654 0 36.1539V4.39418C0 1.96612 1.96611 0 4.39415 0H19.1249C22.9294 0 26.3185 1.77114 28.5167 4.5381C29.4615 6.25121 30 8.2243 30 10.3204C30 13.5354 28.7372 16.4556 26.6713 18.6074Z" fill="#FFE8F5"/>
<path d="M30 10.3227C30 13.5377 28.7395 16.4556 26.6713 18.6097C26.6156 18.6747 26.5529 18.7397 26.4902 18.7977C26.4531 18.8372 26.416 18.8697 26.3788 18.9068C26.3417 18.944 26.3069 18.9765 26.2697 19.0113L26.2558 19.0229C26.2465 19.0322 26.2419 19.0368 26.2326 19.0391C26.1328 19.1366 26.0306 19.2248 25.9308 19.3177C25.8751 19.3711 25.8194 19.4175 25.7637 19.4639C25.6801 19.5359 25.5942 19.6055 25.5083 19.6752C25.4526 19.7216 25.3923 19.7657 25.3296 19.8075C25.2298 19.8911 25.13 19.963 25.0278 20.0326C24.9953 20.0628 24.9582 20.0907 24.9187 20.1116C24.863 20.1557 24.8096 20.1905 24.7539 20.2276C24.7005 20.2671 24.6448 20.3019 24.5891 20.3414C24.5241 20.3832 24.4591 20.4273 24.3941 20.4667C24.3895 20.4667 24.3895 20.469 24.3849 20.469C24.3059 20.5271 24.22 20.5735 24.1365 20.6223C24.1249 20.6315 24.1063 20.6385 24.0947 20.6478C24.0158 20.6942 23.9345 20.743 23.8533 20.7871C23.8486 20.7871 23.8486 20.7917 23.8417 20.7917C23.7233 20.8637 23.591 20.9287 23.4633 20.9937C23.3496 21.0517 23.2382 21.1097 23.1221 21.1608C23.006 21.2188 22.8876 21.2745 22.7669 21.321C22.7252 21.3442 22.681 21.3604 22.6369 21.3767C22.5186 21.4301 22.3932 21.4788 22.2679 21.5299C22.2075 21.5484 22.1518 21.5717 22.0891 21.5949C21.9174 21.6552 21.7409 21.7133 21.5692 21.7666C21.474 21.7968 21.3835 21.8247 21.2883 21.8502C21.1003 21.9059 20.9076 21.9547 20.7149 22.0011C20.6174 22.0266 20.52 22.0475 20.4225 22.0684C20.4225 22.0684 20.4225 22.0684 20.4201 22.0684C20.3343 22.0823 20.2507 22.0986 20.1671 22.1125C20.0836 22.1288 19.9977 22.1427 19.9118 22.1566C19.8723 22.1659 19.8305 22.1705 19.7934 22.1729C19.6286 22.2007 19.4591 22.2193 19.2897 22.2402C19.2572 22.2425 19.2224 22.2495 19.1876 22.2518C19.0413 22.2657 18.8951 22.2773 18.7465 22.2843C18.6954 22.2866 18.649 22.2889 18.6003 22.2936C18.403 22.3029 18.2033 22.3075 18.006 22.3075H13.2242V22.3098L6.76648 38.8838H3.28226C2.40251 38.8838 1.57614 38.6191 0.889043 38.1688H0.886722C0.670845 38.0272 0.466574 37.8694 0.278551 37.6906C0.136954 37.3123 0.044104 36.9084 0.0139276 36.4859C0.00464252 36.3768 0 36.2654 0 36.1539V4.39418C0 1.96612 1.96611 0 4.39415 0H19.1249C22.9294 0 26.3185 1.77114 28.5167 4.5381C29.4591 6.25353 30 8.2243 30 10.3227Z" fill="url(#paint1_linear_579_1310)"/>
<defs>
<linearGradient id="paint0_linear_579_1310" x1="6.76654" y1="28.7456" x2="30" y2="28.7456" gradientUnits="userSpaceOnUse">
<stop stop-color="#8000FF"/>
<stop offset="1" stop-color="#DE00FF"/>
</linearGradient>
<linearGradient id="paint1_linear_579_1310" x1="0" y1="19.4419" x2="30" y2="19.4419" gradientUnits="userSpaceOnUse">
<stop stop-color="#8000FF"/>
<stop offset="1" stop-color="#DE00FF"/>
</linearGradient>
</defs>
</svg>
