<!--?xml version="1.0" encoding="UTF-8"?-->
<svg xmlns="http://www.w3.org/2000/svg" width="64" height="64" viewBox="0 0 24 24" fill="none" aria-labelledby="ticketTitle" role="img">
  <title id="ticketTitle">Support ticket</title>

  <!-- Ticket body -->
  <path d="M2.5 8.5C2.5 7.395 3.395 6.5 4.5 6.5H9.25C9.66421 6.5 10 6.83579 10 7.25V8.25C10 8.66421 10.3358 9 10.75 9H13.25C13.6642 9 14 8.66421 14 8.25V7.25C14 6.83579 14.3358 6.5 14.75 6.5H19.5C20.605 6.5 21.5 7.395 21.5 8.5V15.5C21.5 16.605 20.605 17.5 19.5 17.5H14.75C14.3358 17.5 14 17.1642 14 16.75V15.75C14 15.3358 13.6642 15 13.25 15H10.75C10.3358 15 10 15.3358 10 15.75V16.75C10 17.1642 9.66421 17.5 9.25 17.5H4.5C3.395 17.5 2.5 16.605 2.5 15.5V8.5Z" fill="#F8FAFC" stroke="currentColor" strokewidth="0.8" strokelinecap="round" strokelinejoin="round"></path>

  <!-- Notches / punched holes -->
  <circle cx="4" cy="12" r="0.75" fill="currentColor"></circle>
  <circle cx="20" cy="12" r="0.75" fill="currentColor"></circle>

  <!-- Ticket label (lines) -->
  <rect x="6" y="8.75" width="5.5" height="0.9" rx="0.45" fill="currentColor" opacity="0.95"></rect>
  <rect x="6" y="11.25" width="9" height="0.9" rx="0.45" fill="currentColor" opacity="0.6"></rect>
  <rect x="6" y="13.75" width="6" height="0.9" rx="0.45" fill="currentColor" opacity="0.6"></rect>

  <!-- Small badge / status circle -->
  <circle cx="18" cy="9.5" r="1.5" fill="#EDE9FE" stroke="currentColor" strokewidth="0.6"></circle>
  <path d="M17.4 9.5c0 .607.492 1.1 1.1 1.1.607 0 1.1-.493 1.1-1.1 0-.607-.493-1.1-1.1-1.1-.608 0-1.1.493-1.1 1.1z" fill="currentColor"></path>

</svg>
